<svg width="393" height="716" viewBox="0 0 393 716" fill="none" xmlns="http://www.w3.org/2000/svg">
<g clip-path="url(#clip0_443_150)">
<path d="M201.567 132.514C201.567 132.514 162.929 94.7305 162.929 60.0503C162.929 31.8096 174.404 7.9136 190.17 0.0258614L201.541 45.5679L212.939 0C228.731 7.88774 240.18 31.7837 240.18 60.0244C240.18 94.7046 201.541 132.488 201.541 132.488L201.567 132.514Z" fill="#B5A986" fill-opacity="0.9"/>
<path d="M193.581 138.307C193.581 138.307 145.741 163.393 112.763 152.66C85.9096 143.919 66.7583 125.635 64.1221 108.178L110.928 111.411L71.152 86.5065C83.5318 73.9379 109.791 70.3948 136.644 79.136C169.622 89.8427 193.581 138.281 193.581 138.281V138.307Z" fill="#B5A986" fill-opacity="0.9"/>
<path d="M196.631 147.695C196.631 147.695 205.677 200.995 185.311 229.055C168.718 251.916 145.406 264.485 127.986 261.589L145.535 218.064L109.584 248.218C101.469 232.546 106.198 206.478 122.817 183.616C143.183 155.557 196.631 147.695 196.631 147.695Z" fill="#B5A986" fill-opacity="0.9"/>
<path d="M280.318 183.59C296.91 206.452 301.666 232.52 293.551 248.192L257.6 218.038L275.149 261.563C257.755 264.459 234.443 251.865 217.824 229.029C197.458 200.969 206.504 147.669 206.504 147.669C206.504 147.669 259.952 155.505 280.318 183.59Z" fill="#B5A986" fill-opacity="0.9"/>
<path d="M338.986 108.178C336.35 125.635 317.199 143.945 290.345 152.66C257.367 163.393 209.527 138.307 209.527 138.307C209.527 138.307 233.512 89.8685 266.464 79.1619C293.318 70.4207 319.576 73.9637 331.956 86.5324L292.18 111.437L338.986 108.204V108.178Z" fill="#B5A986" fill-opacity="0.9"/>
<path d="M391.581 394.491C391.581 394.491 352.942 356.707 352.942 322.027C352.942 293.786 364.418 269.89 380.183 262.002L391.555 307.544L402.927 262.002C418.718 269.89 430.168 293.786 430.168 322.027C430.168 356.707 391.529 394.491 391.529 394.491H391.581Z" fill="#B5A986" fill-opacity="0.9"/>
<path d="M383.594 400.283C383.594 400.283 335.755 425.369 302.776 414.637C275.923 405.895 256.772 387.611 254.136 370.155L300.941 373.388L261.166 348.483C273.546 335.914 299.804 332.371 326.657 341.112C359.636 351.819 383.594 400.258 383.594 400.258V400.283Z" fill="#B5A986" fill-opacity="0.9"/>
<path d="M386.645 409.671C386.645 409.671 395.69 462.972 375.324 491.031C358.732 513.893 335.419 526.461 318 523.565L335.549 480.04L299.598 510.195C291.482 494.523 296.212 468.454 312.831 445.593C333.197 417.533 386.645 409.671 386.645 409.671Z" fill="#B5A986" fill-opacity="0.9"/>
<path d="M470.331 445.593C486.924 468.454 491.68 494.523 483.564 510.195L447.614 480.04L465.162 523.565C447.769 526.461 424.456 513.867 407.838 491.031C387.472 462.972 396.518 409.671 396.518 409.671C396.518 409.671 449.965 417.507 470.331 445.593Z" fill="#B5A986" fill-opacity="0.9"/>
<path d="M137.445 586.512C137.445 586.512 98.8066 548.728 98.8066 514.048C98.8066 485.807 110.282 461.911 126.048 454.024L137.419 499.566L148.791 454.024C164.583 461.911 176.032 485.807 176.032 514.048C176.032 548.728 137.394 586.512 137.394 586.512H137.445Z" fill="#B5A986" fill-opacity="0.9"/>
<path d="M129.459 592.305C129.459 592.305 81.6192 617.39 48.6407 606.658C21.7875 597.917 2.63621 579.633 0 562.176L46.8057 565.409L7.0299 540.504C19.4098 527.936 45.6685 524.393 72.5217 533.134C105.5 543.84 129.459 592.279 129.459 592.279V592.305Z" fill="#B5A986" fill-opacity="0.9"/>
<path d="M132.509 601.692C132.509 601.692 141.555 654.993 121.189 683.052C104.596 705.914 81.2835 718.483 63.8638 715.586L81.4128 672.061L45.4621 702.216C37.3467 686.544 42.0763 660.475 58.6948 637.614C79.0608 609.554 132.509 601.692 132.509 601.692Z" fill="#B5A986" fill-opacity="0.9"/>
<path d="M216.196 637.614C232.788 660.475 237.544 686.544 229.428 702.216L193.478 672.061L211.027 715.586C193.633 718.483 170.32 705.888 153.702 683.052C133.336 654.993 142.382 601.692 142.382 601.692C142.382 601.692 195.83 609.528 216.196 637.614Z" fill="#B5A986" fill-opacity="0.9"/>
<path d="M274.864 562.202C272.228 579.658 253.076 597.968 226.223 606.684C193.245 617.416 145.405 592.331 145.405 592.331C145.405 592.331 169.39 543.892 202.342 533.185C229.195 524.444 255.454 527.987 267.834 540.556L228.058 565.461L274.864 562.228V562.202Z" fill="#B5A986" fill-opacity="0.9"/>
</g>
<defs>
<clipPath id="clip0_443_150">
<rect width="529" height="716" fill="white"/>
</clipPath>
</defs>
</svg>
