<svg width="690" height="690" viewBox="0 0 690 690" fill="none" xmlns="http://www.w3.org/2000/svg">
<g clip-path="url(#clip0_653_434)">
<mask id="mask0_653_434" style="mask-type:luminance" maskUnits="userSpaceOnUse" x="0" y="0" width="690" height="690">
<path d="M344.987 689.974C535.518 689.974 689.974 535.518 689.974 344.987C689.974 154.456 535.518 0 344.987 0C154.456 0 0 154.456 0 344.987C0 535.518 154.456 689.974 344.987 689.974Z" fill="white"/>
</mask>
<g mask="url(#mask0_653_434)">
<mask id="mask1_653_434" style="mask-type:luminance" maskUnits="userSpaceOnUse" x="-45" y="0" width="780" height="713">
<path d="M734.521 0.663757H-44.5464V712.924H734.521V0.663757Z" fill="white"/>
</mask>
<g mask="url(#mask1_653_434)">
<path d="M-5.41162 -59.8124C-5.41162 -21.6733 25.8348 9.24123 64.4078 9.24123C64.4078 -28.8978 33.1614 -59.8124 -5.41162 -59.8124Z" stroke="#B5A986" stroke-width="2" stroke-miterlimit="10"/>
<path d="M134.202 -59.8124C95.6543 -59.8124 64.3823 -28.8978 64.3823 9.24123C102.93 9.24123 134.202 -21.6733 134.202 -59.8124Z" stroke="#B5A986" stroke-width="2" stroke-miterlimit="10"/>
<path d="M139.308 -59.8124C139.308 -21.6733 170.554 9.24123 209.127 9.24123C209.127 -28.8978 177.881 -59.8124 139.308 -59.8124Z" stroke="#B5A986" stroke-width="2" stroke-miterlimit="10"/>
<path d="M278.946 -59.8124C240.399 -59.8124 209.127 -28.8978 209.127 9.24123C247.674 9.24123 278.946 -21.6733 278.946 -59.8124Z" stroke="#B5A986" stroke-width="2" stroke-miterlimit="10"/>
<path d="M284.052 -59.8124C284.052 -21.6733 315.298 9.24123 353.871 9.24123C353.871 -28.8978 322.625 -59.8124 284.052 -59.8124Z" stroke="#B5A986" stroke-width="2" stroke-miterlimit="10"/>
<path d="M423.665 -59.8124C385.118 -59.8124 353.846 -28.8978 353.846 9.24123C392.393 9.24123 423.665 -21.6733 423.665 -59.8124Z" stroke="#B5A986" stroke-width="2" stroke-miterlimit="10"/>
<path d="M428.771 -59.8124C428.771 -21.6733 460.017 9.24123 498.59 9.24123C498.59 -28.8978 467.344 -59.8124 428.771 -59.8124Z" stroke="#B5A986" stroke-width="2" stroke-miterlimit="10"/>
<path d="M568.41 -59.8124C529.862 -59.8124 498.59 -28.8978 498.59 9.24123C537.138 9.24123 568.41 -21.6733 568.41 -59.8124Z" stroke="#B5A986" stroke-width="2" stroke-miterlimit="10"/>
<path d="M573.516 -59.8124C573.516 -21.6733 604.762 9.24123 643.335 9.24123C643.335 -28.8978 612.089 -59.8124 573.516 -59.8124Z" stroke="#B5A986" stroke-width="2" stroke-miterlimit="10"/>
<path d="M713.129 -59.8124C674.582 -59.8124 643.31 -28.8978 643.31 9.24123C681.857 9.24123 713.129 -21.6733 713.129 -59.8124Z" stroke="#B5A986" stroke-width="2" stroke-miterlimit="10"/>
<path d="M64.4078 14.3469C25.8348 14.3469 -5.41162 45.2614 -5.41162 83.375C33.1359 83.375 64.4078 52.4604 64.4078 14.3214V14.3469Z" stroke="#B5A986" stroke-width="2" stroke-miterlimit="10"/>
<path d="M64.4077 14.3469C64.4077 52.4859 95.6542 83.4005 134.227 83.4005C134.227 45.2614 102.981 14.3469 64.4077 14.3469Z" stroke="#B5A986" stroke-width="2" stroke-miterlimit="10"/>
<path d="M-5.41162 83.3749C-5.41162 121.514 25.8348 152.429 64.4078 152.429C64.4078 114.29 33.1614 83.3749 -5.41162 83.3749Z" stroke="#B5A986" stroke-width="2" stroke-miterlimit="10"/>
<path d="M134.202 83.3749C95.6543 83.3749 64.3823 114.29 64.3823 152.429C102.93 152.429 134.202 121.514 134.202 83.3749Z" stroke="#B5A986" stroke-width="2" stroke-miterlimit="10"/>
<path d="M209.127 14.3469C170.58 14.3469 139.308 45.2614 139.308 83.4005C177.855 83.4005 209.127 52.4859 209.127 14.3469Z" stroke="#B5A986" stroke-width="2" stroke-miterlimit="10"/>
<path d="M209.127 14.3469C209.127 52.4859 240.373 83.4005 278.946 83.4005C278.946 45.2614 247.7 14.3469 209.127 14.3469Z" stroke="#B5A986" stroke-width="2" stroke-miterlimit="10"/>
<path d="M139.308 83.3749C139.308 121.514 170.554 152.429 209.127 152.429C209.127 114.29 177.881 83.3749 139.308 83.3749Z" stroke="#B5A986" stroke-width="2" stroke-miterlimit="10"/>
<path d="M278.946 83.3749C240.399 83.3749 209.127 114.29 209.127 152.429C247.674 152.429 278.946 121.514 278.946 83.3749Z" stroke="#B5A986" stroke-width="2" stroke-miterlimit="10"/>
<path d="M353.871 14.3469C315.324 14.3469 284.052 45.2614 284.052 83.4005C322.599 83.4005 353.871 52.4859 353.871 14.3469Z" stroke="#B5A986" stroke-width="2" stroke-miterlimit="10"/>
<path d="M353.871 14.3469C353.871 52.4859 385.118 83.4005 423.691 83.4005C423.691 45.2614 392.444 14.3469 353.871 14.3469Z" stroke="#B5A986" stroke-width="2" stroke-miterlimit="10"/>
<path d="M284.052 83.3749C284.052 121.514 315.298 152.429 353.871 152.429C353.871 114.29 322.625 83.3749 284.052 83.3749Z" stroke="#B5A986" stroke-width="2" stroke-miterlimit="10"/>
<path d="M423.665 83.3749C385.118 83.3749 353.846 114.29 353.846 152.429C392.393 152.429 423.665 121.514 423.665 83.3749Z" stroke="#B5A986" stroke-width="2" stroke-miterlimit="10"/>
<path d="M498.59 14.3469C460.043 14.3469 428.771 45.2614 428.771 83.4005C467.318 83.4005 498.59 52.4859 498.59 14.3469Z" stroke="#B5A986" stroke-width="2" stroke-miterlimit="10"/>
<path d="M498.59 14.3469C498.59 52.4859 529.837 83.4005 568.41 83.4005C568.41 45.2614 537.163 14.3469 498.59 14.3469Z" stroke="#B5A986" stroke-width="2" stroke-miterlimit="10"/>
<path d="M428.771 83.3749C428.771 121.514 460.017 152.429 498.59 152.429C498.59 114.29 467.344 83.3749 428.771 83.3749Z" stroke="#B5A986" stroke-width="2" stroke-miterlimit="10"/>
<path d="M568.41 83.3749C529.862 83.3749 498.59 114.29 498.59 152.429C537.138 152.429 568.41 121.514 568.41 83.3749Z" stroke="#B5A986" stroke-width="2" stroke-miterlimit="10"/>
<path d="M643.335 14.3469C604.788 14.3469 573.516 45.2614 573.516 83.4005C612.063 83.4005 643.335 52.4859 643.335 14.3469Z" stroke="#B5A986" stroke-width="2" stroke-miterlimit="10"/>
<path d="M643.335 14.3469C643.335 52.4859 674.581 83.4005 713.154 83.4005C713.154 45.2614 681.908 14.3469 643.335 14.3469Z" stroke="#B5A986" stroke-width="2" stroke-miterlimit="10"/>
<path d="M573.516 83.3749C573.516 121.514 604.762 152.429 643.335 152.429C643.335 114.29 612.089 83.3749 573.516 83.3749Z" stroke="#B5A986" stroke-width="2" stroke-miterlimit="10"/>
<path d="M713.129 83.3749C674.582 83.3749 643.31 114.29 643.31 152.429C681.857 152.429 713.129 121.514 713.129 83.3749Z" stroke="#B5A986" stroke-width="2" stroke-miterlimit="10"/>
<path d="M64.4078 157.534C25.8603 157.534 -5.41162 188.449 -5.41162 226.588C33.1359 226.588 64.4078 195.673 64.4078 157.534Z" stroke="#B5A986" stroke-width="2" stroke-miterlimit="10"/>
<path d="M64.4077 157.534C64.4077 195.673 95.6542 226.588 134.227 226.588C134.227 188.449 102.981 157.534 64.4077 157.534Z" stroke="#B5A986" stroke-width="2" stroke-miterlimit="10"/>
<path d="M-5.41162 226.588C-5.41162 264.727 25.8348 295.641 64.4078 295.641C64.4078 257.502 33.1614 226.588 -5.41162 226.588Z" stroke="#B5A986" stroke-width="2" stroke-miterlimit="10"/>
<path d="M134.202 226.588C95.6543 226.588 64.3823 257.502 64.3823 295.641C102.93 295.641 134.202 264.727 134.202 226.588Z" stroke="#B5A986" stroke-width="2" stroke-miterlimit="10"/>
<path d="M209.127 157.534C170.58 157.534 139.308 188.449 139.308 226.588C177.855 226.588 209.127 195.673 209.127 157.534Z" stroke="#B5A986" stroke-width="2" stroke-miterlimit="10"/>
<path d="M209.127 157.534C209.127 195.673 240.373 226.588 278.946 226.588C278.946 188.449 247.7 157.534 209.127 157.534Z" stroke="#B5A986" stroke-width="2" stroke-miterlimit="10"/>
<path d="M139.308 226.588C139.308 264.727 170.554 295.641 209.127 295.641C209.127 257.502 177.881 226.588 139.308 226.588Z" stroke="#B5A986" stroke-width="2" stroke-miterlimit="10"/>
<path d="M278.946 226.588C240.399 226.588 209.127 257.502 209.127 295.641C247.674 295.641 278.946 264.727 278.946 226.588Z" stroke="#B5A986" stroke-width="2" stroke-miterlimit="10"/>
<path d="M353.871 157.534C315.324 157.534 284.052 188.449 284.052 226.588C322.599 226.588 353.871 195.673 353.871 157.534Z" stroke="#B5A986" stroke-width="2" stroke-miterlimit="10"/>
<path d="M353.871 157.534C353.871 195.673 385.118 226.588 423.691 226.588C423.691 188.449 392.444 157.534 353.871 157.534Z" stroke="#B5A986" stroke-width="2" stroke-miterlimit="10"/>
<path d="M284.052 226.588C284.052 264.727 315.298 295.641 353.871 295.641C353.871 257.502 322.625 226.588 284.052 226.588Z" stroke="#B5A986" stroke-width="2" stroke-miterlimit="10"/>
<path d="M423.665 226.588C385.118 226.588 353.846 257.502 353.846 295.641C392.393 295.641 423.665 264.727 423.665 226.588Z" stroke="#B5A986" stroke-width="2" stroke-miterlimit="10"/>
<path d="M498.59 157.534C460.043 157.534 428.771 188.449 428.771 226.588C467.318 226.588 498.59 195.673 498.59 157.534Z" stroke="#B5A986" stroke-width="2" stroke-miterlimit="10"/>
<path d="M498.59 157.534C498.59 195.673 529.837 226.588 568.41 226.588C568.41 188.449 537.163 157.534 498.59 157.534Z" stroke="#B5A986" stroke-width="2" stroke-miterlimit="10"/>
<path d="M428.771 226.588C428.771 264.727 460.017 295.641 498.59 295.641C498.59 257.502 467.344 226.588 428.771 226.588Z" stroke="#B5A986" stroke-width="2" stroke-miterlimit="10"/>
<path d="M568.41 226.588C529.862 226.588 498.59 257.502 498.59 295.641C537.138 295.641 568.41 264.727 568.41 226.588Z" stroke="#B5A986" stroke-width="2" stroke-miterlimit="10"/>
<path d="M643.335 157.534C604.788 157.534 573.516 188.449 573.516 226.588C612.063 226.588 643.335 195.673 643.335 157.534Z" stroke="#B5A986" stroke-width="2" stroke-miterlimit="10"/>
<path d="M643.335 157.534C643.335 195.673 674.581 226.588 713.154 226.588C713.154 188.449 681.908 157.534 643.335 157.534Z" stroke="#B5A986" stroke-width="2" stroke-miterlimit="10"/>
<path d="M573.516 226.588C573.516 264.727 604.762 295.641 643.335 295.641C643.335 257.502 612.089 226.588 573.516 226.588Z" stroke="#B5A986" stroke-width="2" stroke-miterlimit="10"/>
<path d="M713.129 226.588C674.582 226.588 643.31 257.502 643.31 295.641C681.857 295.641 713.129 264.727 713.129 226.588Z" stroke="#B5A986" stroke-width="2" stroke-miterlimit="10"/>
<path d="M64.4078 300.721C25.8603 300.721 -5.41162 331.636 -5.41162 369.775C33.1359 369.775 64.4078 338.861 64.4078 300.721Z" stroke="#B5A986" stroke-width="2" stroke-miterlimit="10"/>
<path d="M64.4077 300.721C64.4077 338.861 95.6542 369.775 134.227 369.775C134.227 331.636 102.981 300.721 64.4077 300.721Z" stroke="#B5A986" stroke-width="2" stroke-miterlimit="10"/>
<path d="M-5.41162 369.775C-5.41162 407.914 25.8348 438.829 64.4078 438.829C64.4078 400.69 33.1614 369.775 -5.41162 369.775Z" stroke="#B5A986" stroke-width="2" stroke-miterlimit="10"/>
<path d="M134.202 369.775C95.6543 369.775 64.3823 400.69 64.3823 438.829C102.93 438.829 134.202 407.914 134.202 369.775Z" stroke="#B5A986" stroke-width="2" stroke-miterlimit="10"/>
<path d="M209.127 300.721C170.58 300.721 139.308 331.636 139.308 369.775C177.855 369.775 209.127 338.861 209.127 300.721Z" stroke="#B5A986" stroke-width="2" stroke-miterlimit="10"/>
<path d="M209.127 300.721C209.127 338.861 240.373 369.775 278.946 369.775C278.946 331.636 247.7 300.721 209.127 300.721Z" stroke="#B5A986" stroke-width="2" stroke-miterlimit="10"/>
<path d="M139.308 369.775C139.308 407.914 170.554 438.829 209.127 438.829C209.127 400.69 177.881 369.775 139.308 369.775Z" stroke="#B5A986" stroke-width="2" stroke-miterlimit="10"/>
<path d="M278.946 369.775C240.399 369.775 209.127 400.69 209.127 438.829C247.674 438.829 278.946 407.914 278.946 369.775Z" stroke="#B5A986" stroke-width="2" stroke-miterlimit="10"/>
<path d="M353.871 300.721C315.324 300.721 284.052 331.636 284.052 369.775C322.599 369.775 353.871 338.861 353.871 300.721Z" stroke="#B5A986" stroke-width="2" stroke-miterlimit="10"/>
<path d="M353.871 300.721C353.871 338.861 385.118 369.775 423.691 369.775C423.691 331.636 392.444 300.721 353.871 300.721Z" stroke="#B5A986" stroke-width="2" stroke-miterlimit="10"/>
<path d="M284.052 369.775C284.052 407.914 315.298 438.829 353.871 438.829C353.871 400.69 322.625 369.775 284.052 369.775Z" stroke="#B5A986" stroke-width="2" stroke-miterlimit="10"/>
<path d="M423.665 369.775C385.118 369.775 353.846 400.69 353.846 438.829C392.393 438.829 423.665 407.914 423.665 369.775Z" stroke="#B5A986" stroke-width="2" stroke-miterlimit="10"/>
<path d="M498.59 300.721C460.043 300.721 428.771 331.636 428.771 369.775C467.318 369.775 498.59 338.861 498.59 300.721Z" stroke="#B5A986" stroke-width="2" stroke-miterlimit="10"/>
<path d="M498.59 300.721C498.59 338.861 529.837 369.775 568.41 369.775C568.41 331.636 537.163 300.721 498.59 300.721Z" stroke="#B5A986" stroke-width="2" stroke-miterlimit="10"/>
<path d="M428.771 369.775C428.771 407.914 460.017 438.829 498.59 438.829C498.59 400.69 467.344 369.775 428.771 369.775Z" stroke="#B5A986" stroke-width="2" stroke-miterlimit="10"/>
<path d="M568.41 369.775C529.862 369.775 498.59 400.69 498.59 438.829C537.138 438.829 568.41 407.914 568.41 369.775Z" stroke="#B5A986" stroke-width="2" stroke-miterlimit="10"/>
<path d="M643.335 300.721C604.788 300.721 573.516 331.636 573.516 369.775C612.063 369.775 643.335 338.861 643.335 300.721Z" stroke="#B5A986" stroke-width="2" stroke-miterlimit="10"/>
<path d="M643.335 300.721C643.335 338.861 674.581 369.775 713.154 369.775C713.154 331.636 681.908 300.721 643.335 300.721Z" stroke="#B5A986" stroke-width="2" stroke-miterlimit="10"/>
<path d="M573.516 369.775C573.516 407.914 604.762 438.829 643.335 438.829C643.335 400.69 612.089 369.775 573.516 369.775Z" stroke="#B5A986" stroke-width="2" stroke-miterlimit="10"/>
<path d="M713.129 369.775C674.582 369.775 643.31 400.69 643.31 438.829C681.857 438.829 713.129 407.914 713.129 369.775Z" stroke="#B5A986" stroke-width="2" stroke-miterlimit="10"/>
<path d="M64.4078 443.934C25.8603 443.934 -5.41162 474.849 -5.41162 512.988C33.1359 512.988 64.4078 482.073 64.4078 443.934Z" stroke="#B5A986" stroke-width="2" stroke-miterlimit="10"/>
<path d="M64.4077 443.934C64.4077 482.073 95.6542 512.988 134.227 512.988C134.227 474.849 102.981 443.934 64.4077 443.934Z" stroke="#B5A986" stroke-width="2" stroke-miterlimit="10"/>
<path d="M-5.41162 512.962C-5.41162 551.101 25.8348 582.016 64.4078 582.016C64.4078 543.877 33.1614 512.962 -5.41162 512.962Z" stroke="#B5A986" stroke-width="2" stroke-miterlimit="10"/>
<path d="M134.202 512.962C95.6543 512.962 64.3823 543.877 64.3823 582.016C102.93 582.016 134.202 551.101 134.202 512.962Z" stroke="#B5A986" stroke-width="2" stroke-miterlimit="10"/>
<path d="M209.127 443.934C170.58 443.934 139.308 474.849 139.308 512.988C177.855 512.988 209.127 482.073 209.127 443.934Z" stroke="#B5A986" stroke-width="2" stroke-miterlimit="10"/>
<path d="M209.127 443.934C209.127 482.073 240.373 512.988 278.946 512.988C278.946 474.849 247.7 443.934 209.127 443.934Z" stroke="#B5A986" stroke-width="2" stroke-miterlimit="10"/>
<path d="M139.308 512.962C139.308 551.101 170.554 582.016 209.127 582.016C209.127 543.877 177.881 512.962 139.308 512.962Z" stroke="#B5A986" stroke-width="2" stroke-miterlimit="10"/>
<path d="M278.946 512.962C240.399 512.962 209.127 543.877 209.127 582.016C247.674 582.016 278.946 551.101 278.946 512.962Z" stroke="#B5A986" stroke-width="2" stroke-miterlimit="10"/>
<path d="M353.871 443.934C315.324 443.934 284.052 474.849 284.052 512.988C322.599 512.988 353.871 482.073 353.871 443.934Z" stroke="#B5A986" stroke-width="2" stroke-miterlimit="10"/>
<path d="M353.871 443.934C353.871 482.073 385.118 512.988 423.691 512.988C423.691 474.849 392.444 443.934 353.871 443.934Z" stroke="#B5A986" stroke-width="2" stroke-miterlimit="10"/>
<path d="M284.052 512.962C284.052 551.101 315.298 582.016 353.871 582.016C353.871 543.877 322.625 512.962 284.052 512.962Z" stroke="#B5A986" stroke-width="2" stroke-miterlimit="10"/>
<path d="M423.665 512.962C385.118 512.962 353.846 543.877 353.846 582.016C392.393 582.016 423.665 551.101 423.665 512.962Z" stroke="#B5A986" stroke-width="2" stroke-miterlimit="10"/>
<path d="M498.59 443.934C460.043 443.934 428.771 474.849 428.771 512.988C467.318 512.988 498.59 482.073 498.59 443.934Z" stroke="#B5A986" stroke-width="2" stroke-miterlimit="10"/>
<path d="M498.59 443.934C498.59 482.073 529.837 512.988 568.41 512.988C568.41 474.849 537.163 443.934 498.59 443.934Z" stroke="#B5A986" stroke-width="2" stroke-miterlimit="10"/>
<path d="M428.771 512.962C428.771 551.101 460.017 582.016 498.59 582.016C498.59 543.877 467.344 512.962 428.771 512.962Z" stroke="#B5A986" stroke-width="2" stroke-miterlimit="10"/>
<path d="M568.41 512.962C529.862 512.962 498.59 543.877 498.59 582.016C537.138 582.016 568.41 551.101 568.41 512.962Z" stroke="#B5A986" stroke-width="2" stroke-miterlimit="10"/>
<path d="M643.335 443.934C604.788 443.934 573.516 474.849 573.516 512.988C612.063 512.988 643.335 482.073 643.335 443.934Z" stroke="#B5A986" stroke-width="2" stroke-miterlimit="10"/>
<path d="M643.335 443.934C643.335 482.073 674.581 512.988 713.154 512.988C713.154 474.849 681.908 443.934 643.335 443.934Z" stroke="#B5A986" stroke-width="2" stroke-miterlimit="10"/>
<path d="M573.516 512.962C573.516 551.101 604.762 582.016 643.335 582.016C643.335 543.877 612.089 512.962 573.516 512.962Z" stroke="#B5A986" stroke-width="2" stroke-miterlimit="10"/>
<path d="M713.129 512.962C674.582 512.962 643.31 543.877 643.31 582.016C681.857 582.016 713.129 551.101 713.129 512.962Z" stroke="#B5A986" stroke-width="2" stroke-miterlimit="10"/>
<path d="M64.4078 587.122C25.8603 587.122 -5.41162 618.036 -5.41162 656.175C33.1359 656.175 64.4078 625.261 64.4078 587.122Z" stroke="#B5A986" stroke-width="2" stroke-miterlimit="10"/>
<path d="M64.4077 587.122C64.4077 625.261 95.6542 656.175 134.227 656.175C134.227 618.036 102.981 587.122 64.4077 587.122Z" stroke="#B5A986" stroke-width="2" stroke-miterlimit="10"/>
<path d="M-5.41162 656.175C-5.41162 694.314 25.8348 725.229 64.4078 725.229C64.4078 687.09 33.1614 656.175 -5.41162 656.175Z" stroke="#B5A986" stroke-width="2" stroke-miterlimit="10"/>
<path d="M134.202 656.175C95.6543 656.175 64.3823 687.09 64.3823 725.229C102.93 725.229 134.202 694.314 134.202 656.175Z" stroke="#B5A986" stroke-width="2" stroke-miterlimit="10"/>
<path d="M209.127 587.122C170.58 587.122 139.308 618.036 139.308 656.175C177.855 656.175 209.127 625.261 209.127 587.122Z" stroke="#B5A986" stroke-width="2" stroke-miterlimit="10"/>
<path d="M209.127 587.122C209.127 625.261 240.373 656.175 278.946 656.175C278.946 618.036 247.7 587.122 209.127 587.122Z" stroke="#B5A986" stroke-width="2" stroke-miterlimit="10"/>
<path d="M139.308 656.175C139.308 694.314 170.554 725.229 209.127 725.229C209.127 687.09 177.881 656.175 139.308 656.175Z" stroke="#B5A986" stroke-width="2" stroke-miterlimit="10"/>
<path d="M278.946 656.175C240.399 656.175 209.127 687.09 209.127 725.229C247.674 725.229 278.946 694.314 278.946 656.175Z" stroke="#B5A986" stroke-width="2" stroke-miterlimit="10"/>
<path d="M353.871 587.122C315.324 587.122 284.052 618.036 284.052 656.175C322.599 656.175 353.871 625.261 353.871 587.122Z" stroke="#B5A986" stroke-width="2" stroke-miterlimit="10"/>
<path d="M353.871 587.122C353.871 625.261 385.118 656.175 423.691 656.175C423.691 618.036 392.444 587.122 353.871 587.122Z" stroke="#B5A986" stroke-width="2" stroke-miterlimit="10"/>
<path d="M284.052 656.175C284.052 694.314 315.298 725.229 353.871 725.229C353.871 687.09 322.625 656.175 284.052 656.175Z" stroke="#B5A986" stroke-width="2" stroke-miterlimit="10"/>
<path d="M423.665 656.175C385.118 656.175 353.846 687.09 353.846 725.229C392.393 725.229 423.665 694.314 423.665 656.175Z" stroke="#B5A986" stroke-width="2" stroke-miterlimit="10"/>
<path d="M498.59 587.122C460.043 587.122 428.771 618.036 428.771 656.175C467.318 656.175 498.59 625.261 498.59 587.122Z" stroke="#B5A986" stroke-width="2" stroke-miterlimit="10"/>
<path d="M498.59 587.122C498.59 625.261 529.837 656.175 568.41 656.175C568.41 618.036 537.163 587.122 498.59 587.122Z" stroke="#B5A986" stroke-width="2" stroke-miterlimit="10"/>
<path d="M428.771 656.175C428.771 694.314 460.017 725.229 498.59 725.229C498.59 687.09 467.344 656.175 428.771 656.175Z" stroke="#B5A986" stroke-width="2" stroke-miterlimit="10"/>
<path d="M568.41 656.175C529.862 656.175 498.59 687.09 498.59 725.229C537.138 725.229 568.41 694.314 568.41 656.175Z" stroke="#B5A986" stroke-width="2" stroke-miterlimit="10"/>
<path d="M643.335 587.122C604.788 587.122 573.516 618.036 573.516 656.175C612.063 656.175 643.335 625.261 643.335 587.122Z" stroke="#B5A986" stroke-width="2" stroke-miterlimit="10"/>
<path d="M643.335 587.122C643.335 625.261 674.581 656.175 713.154 656.175C713.154 618.036 681.908 587.122 643.335 587.122Z" stroke="#B5A986" stroke-width="2" stroke-miterlimit="10"/>
<path d="M573.516 656.175C573.516 694.314 604.762 725.229 643.335 725.229C643.335 687.09 612.089 656.175 573.516 656.175Z" stroke="#B5A986" stroke-width="2" stroke-miterlimit="10"/>
<path d="M713.129 656.175C674.582 656.175 643.31 687.09 643.31 725.229C681.857 725.229 713.129 694.314 713.129 656.175Z" stroke="#B5A986" stroke-width="2" stroke-miterlimit="10"/>
</g>
</g>
</g>
<defs>
<clipPath id="clip0_653_434">
<rect width="690" height="690" fill="white"/>
</clipPath>
</defs>
</svg>
