<svg width="42" height="42" viewBox="0 0 42 42" fill="none" xmlns="http://www.w3.org/2000/svg">
<g clip-path="url(#clip0_451_394)">
<path d="M1.5 37.5V4.5C1.5 3.70435 1.81607 2.94129 2.37868 2.37868C2.94129 1.81607 3.70435 1.5 4.5 1.5H21H37.5C38.2956 1.5 39.0587 1.81607 39.6213 2.37868C40.1839 2.94129 40.5 3.70435 40.5 4.5V37.5C40.5 38.2956 40.1839 39.0587 39.6213 39.6213C39.0587 40.1839 38.2956 40.5 37.5 40.5H28.5V26.28H30.63C31.1153 26.28 31.5808 26.0872 31.924 25.744C32.2672 25.4008 32.46 24.9353 32.46 24.45V22.14C32.46 21.6547 32.2672 21.1892 31.924 20.846C31.5808 20.5028 31.1153 20.31 30.63 20.31H28.62V17.49C28.62 14.97 29.76 14.97 30.9 14.97H32.37C32.6114 14.9799 32.8521 14.9367 33.075 14.8434C33.2979 14.7501 33.4976 14.609 33.66 14.43C33.8343 14.264 33.9724 14.0637 34.0653 13.8416C34.1582 13.6196 34.2041 13.3807 34.2 13.14V10.92C34.208 10.6757 34.1678 10.4322 34.0816 10.2035C33.9955 9.97476 33.8651 9.76525 33.6979 9.58693C33.5308 9.40862 33.3301 9.265 33.1074 9.16429C32.8847 9.06358 32.6443 9.00775 32.4 9H28.95C27.9433 8.96215 26.9405 9.14328 26.0106 9.53087C25.0808 9.91846 24.2462 10.5033 23.5645 11.2449C22.8827 11.9865 22.3701 12.8673 22.062 13.8264C21.7539 14.7855 21.6577 15.8001 21.78 16.8V20.31H19.86C19.6172 20.306 19.376 20.3504 19.1505 20.4406C18.925 20.5308 18.7197 20.6649 18.5466 20.8353C18.3734 21.0056 18.236 21.2087 18.1421 21.4327C18.0483 21.6567 18 21.8971 18 22.14V24.45C18 24.6929 18.0483 24.9333 18.1421 25.1573C18.236 25.3813 18.3734 25.5844 18.5466 25.7547C18.7197 25.9251 18.925 26.0592 19.1505 26.1494C19.376 26.2396 19.6172 26.284 19.86 26.28H21.78V40.5H4.5C3.70435 40.5 2.94129 40.1839 2.37868 39.6213C1.81607 39.0587 1.5 38.2956 1.5 37.5Z" stroke="#DED1AC" stroke-width="4" stroke-linecap="round" stroke-linejoin="round"/>
</g>
<defs>
<clipPath id="clip0_451_394">
<rect width="42" height="42" fill="white"/>
</clipPath>
</defs>
</svg>
