<svg width="170" height="690" viewBox="0 0 170 690" fill="none" xmlns="http://www.w3.org/2000/svg">
<g clip-path="url(#clip0_451_658)">
<mask id="mask0_451_658" style="mask-type:luminance" maskUnits="userSpaceOnUse" x="-520" y="0" width="690" height="690">
<path d="M-175.013 689.974C15.5184 689.974 169.974 535.518 169.974 344.987C169.974 154.456 15.5184 0 -175.013 0C-365.544 0 -520 154.456 -520 344.987C-520 535.518 -365.544 689.974 -175.013 689.974Z" fill="white"/>
</mask>
<g mask="url(#mask0_451_658)">
<mask id="mask1_451_658" style="mask-type:luminance" maskUnits="userSpaceOnUse" x="-565" y="0" width="780" height="713">
<path d="M214.521 0.663818H-564.546V712.924H214.521V0.663818Z" fill="white"/>
</mask>
<g mask="url(#mask1_451_658)">
<path d="M48.4098 -59.8123C9.86231 -59.8123 -21.4097 -28.8977 -21.4097 9.24135C17.1378 9.24135 48.4098 -21.6732 48.4098 -59.8123Z" stroke="#B5A986" stroke-width="2" stroke-miterlimit="10"/>
<path d="M53.5156 -59.8123C53.5156 -21.6732 84.762 9.24135 123.335 9.24135C123.335 -28.8977 92.0886 -59.8123 53.5156 -59.8123Z" stroke="#B5A986" stroke-width="2" stroke-miterlimit="10"/>
<path d="M193.129 -59.8123C154.582 -59.8123 123.31 -28.8977 123.31 9.24135C161.857 9.24135 193.129 -21.6732 193.129 -59.8123Z" stroke="#B5A986" stroke-width="2" stroke-miterlimit="10"/>
<path d="M-21.4097 14.3469C-21.4097 52.486 9.83679 83.4005 48.4098 83.4005C48.4098 45.2615 17.1633 14.3469 -21.4097 14.3469Z" stroke="#B5A986" stroke-width="2" stroke-miterlimit="10"/>
<path d="M48.4098 83.375C9.86231 83.375 -21.4097 114.29 -21.4097 152.429C17.1378 152.429 48.4098 121.514 48.4098 83.375Z" stroke="#B5A986" stroke-width="2" stroke-miterlimit="10"/>
<path d="M123.335 14.3469C84.7876 14.3469 53.5156 45.2615 53.5156 83.4005C92.0631 83.4005 123.335 52.486 123.335 14.3469Z" stroke="#B5A986" stroke-width="2" stroke-miterlimit="10"/>
<path d="M123.335 14.3469C123.335 52.486 154.581 83.4005 193.154 83.4005C193.154 45.2615 161.908 14.3469 123.335 14.3469Z" stroke="#B5A986" stroke-width="2" stroke-miterlimit="10"/>
<path d="M53.5156 83.375C53.5156 121.514 84.762 152.429 123.335 152.429C123.335 114.29 92.0886 83.375 53.5156 83.375Z" stroke="#B5A986" stroke-width="2" stroke-miterlimit="10"/>
<path d="M193.129 83.375C154.582 83.375 123.31 114.29 123.31 152.429C161.857 152.429 193.129 121.514 193.129 83.375Z" stroke="#B5A986" stroke-width="2" stroke-miterlimit="10"/>
<path d="M-21.4097 157.534C-21.4097 195.673 9.83679 226.588 48.4098 226.588C48.4098 188.449 17.1633 157.534 -21.4097 157.534Z" stroke="#B5A986" stroke-width="2" stroke-miterlimit="10"/>
<path d="M48.4098 226.588C9.86231 226.588 -21.4097 257.502 -21.4097 295.641C17.1378 295.641 48.4098 264.727 48.4098 226.588Z" stroke="#B5A986" stroke-width="2" stroke-miterlimit="10"/>
<path d="M123.335 157.534C84.7876 157.534 53.5156 188.449 53.5156 226.588C92.0631 226.588 123.335 195.673 123.335 157.534Z" stroke="#B5A986" stroke-width="2" stroke-miterlimit="10"/>
<path d="M123.335 157.534C123.335 195.673 154.581 226.588 193.154 226.588C193.154 188.449 161.908 157.534 123.335 157.534Z" stroke="#B5A986" stroke-width="2" stroke-miterlimit="10"/>
<path d="M53.5156 226.588C53.5156 264.727 84.762 295.641 123.335 295.641C123.335 257.502 92.0886 226.588 53.5156 226.588Z" stroke="#B5A986" stroke-width="2" stroke-miterlimit="10"/>
<path d="M193.129 226.588C154.582 226.588 123.31 257.502 123.31 295.641C161.857 295.641 193.129 264.727 193.129 226.588Z" stroke="#B5A986" stroke-width="2" stroke-miterlimit="10"/>
<path d="M-21.4097 300.722C-21.4097 338.861 9.83679 369.775 48.4098 369.775C48.4098 331.636 17.1633 300.722 -21.4097 300.722Z" stroke="#B5A986" stroke-width="2" stroke-miterlimit="10"/>
<path d="M48.4098 369.775C9.86231 369.775 -21.4097 400.69 -21.4097 438.829C17.1378 438.829 48.4098 407.914 48.4098 369.775Z" stroke="#B5A986" stroke-width="2" stroke-miterlimit="10"/>
<path d="M123.335 300.722C84.7876 300.722 53.5156 331.636 53.5156 369.775C92.0631 369.775 123.335 338.861 123.335 300.722Z" stroke="#B5A986" stroke-width="2" stroke-miterlimit="10"/>
<path d="M123.335 300.722C123.335 338.861 154.581 369.775 193.154 369.775C193.154 331.636 161.908 300.722 123.335 300.722Z" stroke="#B5A986" stroke-width="2" stroke-miterlimit="10"/>
<path d="M53.5156 369.775C53.5156 407.914 84.762 438.829 123.335 438.829C123.335 400.69 92.0886 369.775 53.5156 369.775Z" stroke="#B5A986" stroke-width="2" stroke-miterlimit="10"/>
<path d="M193.129 369.775C154.582 369.775 123.31 400.69 123.31 438.829C161.857 438.829 193.129 407.914 193.129 369.775Z" stroke="#B5A986" stroke-width="2" stroke-miterlimit="10"/>
<path d="M-21.4097 443.934C-21.4097 482.073 9.83679 512.988 48.4098 512.988C48.4098 474.849 17.1633 443.934 -21.4097 443.934Z" stroke="#B5A986" stroke-width="2" stroke-miterlimit="10"/>
<path d="M48.4098 512.962C9.86231 512.962 -21.4097 543.877 -21.4097 582.016C17.1378 582.016 48.4098 551.101 48.4098 512.962Z" stroke="#B5A986" stroke-width="2" stroke-miterlimit="10"/>
<path d="M123.335 443.934C84.7876 443.934 53.5156 474.849 53.5156 512.988C92.0631 512.988 123.335 482.073 123.335 443.934Z" stroke="#B5A986" stroke-width="2" stroke-miterlimit="10"/>
<path d="M123.335 443.934C123.335 482.073 154.581 512.988 193.154 512.988C193.154 474.849 161.908 443.934 123.335 443.934Z" stroke="#B5A986" stroke-width="2" stroke-miterlimit="10"/>
<path d="M53.5156 512.962C53.5156 551.101 84.762 582.016 123.335 582.016C123.335 543.877 92.0886 512.962 53.5156 512.962Z" stroke="#B5A986" stroke-width="2" stroke-miterlimit="10"/>
<path d="M193.129 512.962C154.582 512.962 123.31 543.877 123.31 582.016C161.857 582.016 193.129 551.101 193.129 512.962Z" stroke="#B5A986" stroke-width="2" stroke-miterlimit="10"/>
<path d="M-21.4097 587.122C-21.4097 625.261 9.83679 656.175 48.4098 656.175C48.4098 618.036 17.1633 587.122 -21.4097 587.122Z" stroke="#B5A986" stroke-width="2" stroke-miterlimit="10"/>
<path d="M48.4098 656.176C9.86231 656.176 -21.4097 687.09 -21.4097 725.229C17.1378 725.229 48.4098 694.315 48.4098 656.176Z" stroke="#B5A986" stroke-width="2" stroke-miterlimit="10"/>
<path d="M123.335 587.122C84.7876 587.122 53.5156 618.036 53.5156 656.175C92.0631 656.175 123.335 625.261 123.335 587.122Z" stroke="#B5A986" stroke-width="2" stroke-miterlimit="10"/>
<path d="M123.335 587.122C123.335 625.261 154.581 656.175 193.154 656.175C193.154 618.036 161.908 587.122 123.335 587.122Z" stroke="#B5A986" stroke-width="2" stroke-miterlimit="10"/>
<path d="M53.5156 656.176C53.5156 694.315 84.762 725.229 123.335 725.229C123.335 687.09 92.0886 656.176 53.5156 656.176Z" stroke="#B5A986" stroke-width="2" stroke-miterlimit="10"/>
<path d="M193.129 656.176C154.582 656.176 123.31 687.09 123.31 725.229C161.857 725.229 193.129 694.315 193.129 656.176Z" stroke="#B5A986" stroke-width="2" stroke-miterlimit="10"/>
</g>
</g>
</g>
<defs>
<clipPath id="clip0_451_658">
<rect width="690" height="690" fill="white" transform="translate(-520)"/>
</clipPath>
</defs>
</svg>
