<?xml version="1.0" encoding="utf-8"?>
<!-- Generator: Adobe Illustrator 25.2.0, SVG Export Plug-In . SVG Version: 6.00 Build 0)  -->
<svg version="1.1" id="圖層_1" xmlns="http://www.w3.org/2000/svg" xmlns:xlink="http://www.w3.org/1999/xlink" x="0px" y="0px"
	 viewBox="0 0 56 56" style="enable-background:new 0 0 56 56;" xml:space="preserve">
<style type="text/css">
	.st0{fill-rule:evenodd;clip-rule:evenodd;fill:#DED1AC;}
</style>
<path class="st0" d="M40.3-1.1c4.2,0,8.2,1.7,11.1,4.7c2.9,3,4.6,7.1,4.6,11.3v25.6c0,4.2-1.7,8.3-4.6,11.3c-2.9,3-6.9,4.7-11.1,4.7
	H15.2C11,56.5,7,54.8,4,51.8c-2.9-3-4.6-7.1-4.6-11.3V14.9c0-4.2,1.7-8.3,4.6-11.3C7,0.6,11-1.1,15.2-1.1H40.3z M40.3,5.3H15.2
	c-2.5,0-4.9,1-6.7,2.8c-1.8,1.8-2.8,4.2-2.8,6.8v25.6c0,2.5,1,5,2.8,6.8c1.8,1.8,4.2,2.8,6.7,2.8h25.2c2.5,0,4.9-1,6.7-2.8
	c1.8-1.8,2.8-4.2,2.8-6.8V14.9c0-2.5-1-5-2.8-6.8C45.2,6.3,42.8,5.3,40.3,5.3z M27.7,14.9c3.3,0,6.5,1.3,8.9,3.7
	c2.4,2.4,3.7,5.7,3.7,9.1s-1.3,6.6-3.7,9.1c-2.4,2.4-5.6,3.7-8.9,3.7s-6.5-1.3-8.9-3.7c-2.4-2.4-3.7-5.7-3.7-9.1s1.3-6.6,3.7-9.1
	S24.4,14.9,27.7,14.9z M27.7,21.3c-1.7,0-3.3,0.7-4.4,1.9c-1.2,1.2-1.8,2.8-1.8,4.5c0,1.7,0.7,3.3,1.8,4.5c1.2,1.2,2.8,1.9,4.4,1.9
	c1.7,0,3.3-0.7,4.4-1.9c1.2-1.2,1.8-2.8,1.8-4.5c0-1.7-0.7-3.3-1.8-4.5C31,22,29.4,21.3,27.7,21.3z M41.9,10.1
	c0.8,0,1.6,0.3,2.2,0.9c0.6,0.6,0.9,1.4,0.9,2.3c0,0.8-0.3,1.7-0.9,2.3c-0.6,0.6-1.4,0.9-2.2,0.9c-0.8,0-1.6-0.3-2.2-0.9
	c-0.6-0.6-0.9-1.4-0.9-2.3c0-0.8,0.3-1.7,0.9-2.3C40.2,10.5,41,10.1,41.9,10.1z"/>
</svg>
