<svg id="圖層_1" data-name="圖層 1" xmlns="http://www.w3.org/2000/svg" viewBox="0 0 520 9.43"><defs><style>.cls-1{fill:none;}.cls-2{fill:#ded1ac;}</style></defs><path class="cls-1" d="M252.5,781.5h520" transform="translate(-252.5 -776.78)"/><rect class="cls-1" width="11.56" height="9.43"/><rect class="cls-2" x="2.91" y="4.24" width="6.23" height="0.94"/><rect class="cls-2" x="10.06" y="4.25" width="1.25" height="0.94"/><rect class="cls-1" x="11.56" width="11.56" height="9.43"/><rect class="cls-2" x="14.47" y="4.24" width="6.23" height="0.94"/><rect class="cls-2" x="21.62" y="4.25" width="1.25" height="0.94"/><rect class="cls-1" x="23.11" width="11.56" height="9.43"/><rect class="cls-2" x="25.86" y="4.24" width="6.23" height="0.94"/><rect class="cls-2" x="33.01" y="4.25" width="1.25" height="0.94"/><rect class="cls-1" x="34.67" width="11.56" height="9.43"/><rect class="cls-2" x="37.25" y="4.24" width="6.23" height="0.94"/><rect class="cls-2" x="44.4" y="4.25" width="1.25" height="0.94"/><rect class="cls-1" x="46.22" width="11.56" height="9.43"/><rect class="cls-2" x="48.8" y="4.24" width="6.23" height="0.94"/><rect class="cls-2" x="55.96" y="4.25" width="1.25" height="0.94"/><rect class="cls-1" x="57.78" width="11.56" height="9.43"/><rect class="cls-2" x="60.36" y="4.24" width="6.23" height="0.94"/><rect class="cls-2" x="67.51" y="4.25" width="1.25" height="0.94"/><rect class="cls-1" x="69.33" width="11.56" height="9.43"/><rect class="cls-2" x="71.91" y="4.24" width="6.23" height="0.94"/><rect class="cls-2" x="79.07" y="4.25" width="1.25" height="0.94"/><rect class="cls-1" x="80.89" width="11.56" height="9.43"/><rect class="cls-2" x="83.3" y="4.24" width="6.23" height="0.94"/><rect class="cls-2" x="90.33" y="4.25" width="1.25" height="0.94"/><rect class="cls-1" x="92.44" width="11.56" height="9.43"/><rect class="cls-2" x="94.74" y="4.24" width="6.23" height="0.94"/><rect class="cls-2" x="101.89" y="4.25" width="1.25" height="0.94"/><rect class="cls-1" x="104" width="11.56" height="9.43"/><rect class="cls-2" x="106.29" y="4.24" width="6.23" height="0.94"/><rect class="cls-2" x="113.32" y="4.25" width="1.37" height="0.94"/><rect class="cls-1" x="115.56" width="11.56" height="9.43"/><rect class="cls-2" x="117.85" y="4.24" width="6.23" height="0.94"/><rect class="cls-2" x="125" y="4.25" width="1.25" height="0.94"/><rect class="cls-1" x="127.11" width="11.56" height="9.43"/><rect class="cls-2" x="129.4" y="4.24" width="6.23" height="0.94"/><rect class="cls-1" x="138.67" width="11.56" height="9.43"/><rect class="cls-2" x="140.83" y="4.24" width="6.23" height="0.94"/><rect class="cls-2" x="147.99" y="4.25" width="1.25" height="0.94"/><rect class="cls-2" x="136.55" y="4.25" width="1.25" height="0.94"/><rect class="cls-1" x="150.22" width="11.56" height="9.43"/><rect class="cls-2" x="159.54" y="4.25" width="1.25" height="0.94"/><rect class="cls-1" x="161.78" width="11.56" height="9.43"/><rect class="cls-2" x="163.94" y="4.24" width="6.23" height="0.94"/><rect class="cls-2" x="152.43" y="4.28" width="6.23" height="0.94"/><rect class="cls-2" x="171.1" y="4.25" width="1.25" height="0.94"/><rect class="cls-1" x="173.33" width="11.56" height="9.43"/><rect class="cls-2" x="175.5" y="4.24" width="6.23" height="0.94"/><rect class="cls-2" x="182.65" y="4.25" width="1.25" height="0.94"/><rect class="cls-1" x="184.89" width="11.56" height="9.43"/><rect class="cls-2" x="187.06" y="4.24" width="6.23" height="0.94"/><rect class="cls-2" x="194.21" y="4.25" width="1.25" height="0.94"/><rect class="cls-1" x="196.44" width="11.56" height="9.43"/><rect class="cls-2" x="198.61" y="4.24" width="6.23" height="0.94"/><rect class="cls-2" x="205.77" y="4.25" width="1.25" height="0.94"/><rect class="cls-1" x="208" width="11.56" height="9.43"/><rect class="cls-2" x="210.17" y="4.24" width="6.23" height="0.94"/><rect class="cls-2" x="217.32" y="4.25" width="1.25" height="0.94"/><rect class="cls-1" x="219.56" width="11.56" height="9.43"/><rect class="cls-2" x="222.22" y="4.24" width="6.23" height="0.94"/><rect class="cls-2" x="229.37" y="4.25" width="1.25" height="0.94"/><rect class="cls-1" x="231.11" width="11.56" height="9.43"/><rect class="cls-2" x="233.61" y="4.24" width="6.23" height="0.94"/><rect class="cls-2" x="240.76" y="4.25" width="1.25" height="0.94"/><rect class="cls-1" x="242.67" width="11.56" height="9.43"/><rect class="cls-2" x="245.16" y="4.24" width="6.23" height="0.94"/><polygon class="cls-2" points="252.48 5.19 252.32 4.25 253.56 4.25 253.73 5.19 252.48 5.19"/><rect class="cls-1" x="254.22" width="11.56" height="9.43"/><rect class="cls-2" x="256.72" y="4.24" width="6.23" height="0.94"/><rect class="cls-2" x="263.87" y="4.25" width="1.25" height="0.94"/><rect class="cls-1" x="265.78" width="11.56" height="9.43"/><rect class="cls-2" x="268" y="4.24" width="6.23" height="0.94"/><rect class="cls-2" x="275.15" y="4.25" width="1.25" height="0.94"/><rect class="cls-1" x="277.33" width="11.56" height="9.43"/><rect class="cls-2" x="279.56" y="4.24" width="6.23" height="0.94"/><rect class="cls-2" x="286.71" y="4.25" width="1.25" height="0.94"/><rect class="cls-1" x="288.89" width="11.56" height="9.43"/><rect class="cls-2" x="291.11" y="4.24" width="6.23" height="0.94"/><rect class="cls-2" x="298.26" y="4.25" width="1.24" height="0.94"/><rect class="cls-1" x="300.44" width="11.56" height="9.43"/><rect class="cls-2" x="302.67" y="4.24" width="6.23" height="0.94"/><rect class="cls-2" x="309.82" y="4.25" width="1.25" height="0.94"/><rect class="cls-1" x="312" width="11.56" height="9.43"/><rect class="cls-2" x="314.22" y="4.24" width="6.23" height="0.94"/><rect class="cls-2" x="321.38" y="4.25" width="1.25" height="0.94"/><rect class="cls-1" x="323.56" width="11.56" height="9.43"/><rect class="cls-2" x="325.78" y="4.24" width="6.23" height="0.94"/><rect class="cls-2" x="332.93" y="4.25" width="1.25" height="0.94"/><rect class="cls-1" x="335.11" width="11.56" height="9.43"/><rect class="cls-2" x="337.33" y="4.24" width="6.23" height="0.94"/><rect class="cls-2" x="344.49" y="4.25" width="1.24" height="0.94"/><rect class="cls-1" x="346.67" width="11.56" height="9.43"/><rect class="cls-2" x="348.89" y="4.24" width="6.23" height="0.94"/><rect class="cls-2" x="356.04" y="4.25" width="1.25" height="0.94"/><rect class="cls-1" x="358.22" width="11.56" height="9.43"/><rect class="cls-2" x="360.44" y="4.24" width="6.23" height="0.94"/><rect class="cls-2" x="367.6" y="4.25" width="1.25" height="0.94"/><rect class="cls-1" x="369.78" width="11.56" height="9.43"/><rect class="cls-2" x="372" y="4.24" width="6.23" height="0.94"/><rect class="cls-2" x="379.15" y="4.25" width="1.25" height="0.94"/><rect class="cls-1" x="381.33" width="11.56" height="9.43"/><rect class="cls-2" x="384" y="4.24" width="6.23" height="0.94"/><rect class="cls-2" x="391.15" y="4.25" width="1.25" height="0.94"/><rect class="cls-1" x="392.89" width="11.56" height="9.43"/><rect class="cls-2" x="395.55" y="4.24" width="6.23" height="0.94"/><rect class="cls-2" x="402.71" y="4.25" width="1.24" height="0.94"/><rect class="cls-1" x="404.44" width="11.56" height="9.43"/><rect class="cls-2" x="407.11" y="4.24" width="6.23" height="0.94"/><rect class="cls-2" x="414.26" y="4.25" width="1.25" height="0.94"/><rect class="cls-1" x="416" width="11.56" height="9.43"/><rect class="cls-2" x="418.66" y="4.24" width="6.23" height="0.94"/><rect class="cls-2" x="425.82" y="4.25" width="1.25" height="0.94"/><rect class="cls-1" x="427.56" width="11.56" height="9.43"/><rect class="cls-2" x="430.22" y="4.24" width="6.23" height="0.94"/><rect class="cls-2" x="437.37" y="4.25" width="1.25" height="0.94"/><rect class="cls-1" x="439.11" width="11.56" height="9.43"/><rect class="cls-2" x="441.77" y="4.24" width="6.23" height="0.94"/><rect class="cls-2" x="448.93" y="4.25" width="1.24" height="0.94"/><rect class="cls-1" x="450.67" width="11.56" height="9.43"/><rect class="cls-2" x="453.33" y="4.24" width="6.23" height="0.94"/><rect class="cls-2" x="460.48" y="4.25" width="1.25" height="0.94"/><rect class="cls-1" x="462.22" width="11.56" height="9.43"/><rect class="cls-2" x="464.88" y="4.24" width="6.23" height="0.94"/><rect class="cls-2" x="472.04" y="4.25" width="1.25" height="0.94"/><rect class="cls-1" x="473.78" width="11.56" height="9.43"/><rect class="cls-2" x="476.44" y="4.24" width="6.23" height="0.94"/><rect class="cls-2" x="483.59" y="4.25" width="1.25" height="0.94"/><rect class="cls-1" x="485.33" width="11.56" height="9.43"/><rect class="cls-2" x="488" y="4.24" width="6.23" height="0.94"/><rect class="cls-2" x="495.15" y="4.25" width="1.25" height="0.94"/><rect class="cls-1" x="496.89" width="11.56" height="9.43"/><rect class="cls-2" x="499.55" y="4.24" width="6.23" height="0.94"/><rect class="cls-2" x="506.71" y="4.25" width="1.24" height="0.94"/><rect class="cls-1" x="508.44" width="11.56" height="9.43"/><rect class="cls-2" x="511.11" y="4.24" width="6.23" height="0.94"/><rect class="cls-2" x="518.26" y="4.25" width="1.25" height="0.94"/></svg>