<?xml version="1.0" encoding="utf-8"?>
<!-- Generator: Adobe Illustrator 25.2.0, SVG Export Plug-In . SVG Version: 6.00 Build 0)  -->
<svg version="1.1" id="圖層_1" xmlns="http://www.w3.org/2000/svg" xmlns:xlink="http://www.w3.org/1999/xlink" x="0px" y="0px"
	 viewBox="0 0 395.7 376.7" style="enable-background:new 0 0 395.7 376.7;" xml:space="preserve">
<style type="text/css">
	.st0{fill:#E9DEBF;}
</style>
<g id="圖層_2_1_">
	<g id="圖層_6">
		<path class="st0" d="M0,239.2c0,0,44.3,142,182.3,137.4S389.7,260.4,395,173.8S376.5,3.4,280.7,0.1s-106.4,78.6-105,115.6
			c1.1,31.7,28.4,92.5,81.9,93.8s79.9-21.8,81.2-23.8S224.6,228,205.4,116.3S358-38.9,360.7,109.1S281.9,337.3,183,348.9
			C70,362.1,0,239.2,0,239.2z"/>
		<path class="st0" d="M0,239.2c0,0,47.9,66,114.3,24.4s74.3-96.8,74.3-96.8s5.3,17.6,21.8,28.4c0,0-54.3,113.1-184.1,88.3L0,239.2z
			"/>
	</g>
</g>
</svg>
